<?xml version="1.0" encoding="UTF-8" standalone="no"?>
<!-- Created with Inkscape (http://www.inkscape.org/) -->

<svg
   width="1920"
   height="1080"
   viewBox="0 0 1920 1080"
   version="1.1"
   id="svg1"
   inkscape:version="1.4.2 (f4327f4, 2025-05-13)"
   sodipodi:docname="outskirts.svg"
   xmlns:inkscape="http://www.inkscape.org/namespaces/inkscape"
   xmlns:sodipodi="http://sodipodi.sourceforge.net/DTD/sodipodi-0.dtd"
   xmlns="http://www.w3.org/2000/svg"
   xmlns:svg="http://www.w3.org/2000/svg">
  <sodipodi:namedview
     id="namedview1"
     pagecolor="#ffffff"
     bordercolor="#000000"
     borderopacity="0.25"
     inkscape:showpageshadow="2"
     inkscape:pageopacity="0.0"
     inkscape:pagecheckerboard="0"
     inkscape:deskcolor="#d1d1d1"
     inkscape:document-units="px"
     inkscape:zoom="1.4944444"
     inkscape:cx="1526.6543"
     inkscape:cy="637.3606"
     inkscape:window-width="1920"
     inkscape:window-height="1009"
     inkscape:window-x="-8"
     inkscape:window-y="-8"
     inkscape:window-maximized="1"
     inkscape:current-layer="layer1" />
  <defs
     id="defs1">
    <inkscape:path-effect
       effect="spiro"
       id="path-effect1"
       is_visible="true"
       lpeversion="1" />
  </defs>
  <g
     inkscape:label="Vrstva 1"
     inkscape:groupmode="layer"
     id="layer1">
    <path
       style="fill:#1b1825;fill-opacity:1;stroke:#000000;stroke-width:3.77953"
       d="m 0,784.23792 c 386.34597,-0.94631 255.64464,-2.05443 386.34597,-0.94631 14.84915,0.12589 12.46444,57.15449 12.46444,57.15449 0,0 380.07435,18.73606 388.10409,2.67658 8.02974,-16.05948 18.76223,-30.57202 24.08922,-34.79554 2.25664,-1.78918 46.55784,-0.0633 56.20818,0 4.59935,0.0301 16.05947,-37.47212 34.79553,-37.47212 18.73606,0 281.57597,-7.40199 329.59737,3.14974 19.8077,4.35233 3.4884,46.84015 17.0197,49.04357 18.6803,3.04188 404.1636,8.02974 404.1636,8.02974 l 1.3383,-38.81041 99.0335,-2.67658 1.3382,-33.45725 57.5465,-1.33829 -1.3383,-274.34944 -84.3122,-1.33829 L 1719.7026,0 H 1920 V 1080 H 0 Z"
       id="path1"
       sodipodi:nodetypes="cscsssssscccccccccccc" />
    <path
       style="fill:#ffffff;fill-opacity:1;stroke:#ffffff;stroke-width:3.77953;stroke-opacity:1"
       d="m 1817.4991,689.48564 h 15.141"
       id="path2" />
    <path
       style="fill:#ffffff;fill-opacity:1;stroke:#ffffff;stroke-width:3.77953;stroke-opacity:1"
       d="m 1817.4859,684.24525 h 15.141"
       id="path3" />
    <path
       style="fill:#1b1825;fill-opacity:1;stroke:#000000;stroke-width:8;stroke-dasharray:none;stroke-opacity:1"
       d="M 185.32578,605.13547 V 783.62829"
       id="path9" />
    <path
       style="fill:#1b1825;fill-opacity:1;stroke:#000000;stroke-width:8;stroke-dasharray:none;stroke-opacity:1"
       d="M 476.37609,655.99053 V 843.86832"
       id="path10" />
    <path
       style="fill:#1b1825;fill-opacity:1;stroke:#000000;stroke-width:8.00001;stroke-dasharray:none;stroke-opacity:1"
       d="M 863.42662,486.20544 V 809.03686"
       id="path11" />
    <path
       style="fill:#1b1825;fill-opacity:1;stroke:#000000;stroke-width:8.00002;stroke-dasharray:none;stroke-opacity:1"
       d="M 1131.0599,313.86709 V 768.52007"
       id="path12" />
    <path
       style="fill:#1b1825;fill-opacity:1;stroke:#000000;stroke-width:3.77953;stroke-opacity:1"
       d="m 434.34893,651.03372 c 2.02039,4.31218 82.01739,3.54987 84.6951,0.94631 2.40187,-2.33536 3.85541,-80.90431 -0.94632,-84.69509 -6.87736,-5.42941 -80.65895,-2.97755 -83.27562,-0.94631 -3.2976,2.55982 -2.67374,79.99832 -0.47316,84.69509 z"
       id="path6"
       sodipodi:nodetypes="sssss" />
    <path
       style="fill:#1b1825;fill-opacity:1;stroke:#000000;stroke-width:3.77953;stroke-opacity:1"
       d="m 143.94001,629.62108 c 2.02039,4.31218 82.01739,3.54987 84.6951,0.94631 2.40187,-2.33536 3.85541,-80.90431 -0.94632,-84.69509 -6.87736,-5.42941 -80.65895,-2.97755 -83.27562,-0.94631 -3.2976,2.55982 -2.67374,79.99832 -0.47316,84.69509 z"
       id="path5"
       sodipodi:nodetypes="sssss" />
    <path
       style="fill:#1b1825;fill-opacity:1;stroke:#000000;stroke-width:3.77953;stroke-opacity:1"
       d="m 821.11473,485.08576 c 2.02039,4.31218 82.01739,3.54987 84.6951,0.94631 2.40187,-2.33536 3.85541,-80.90431 -0.94632,-84.69509 -6.87736,-5.42941 -80.65895,-2.97755 -83.27562,-0.94631 -3.2976,2.55982 -2.67374,79.99832 -0.47316,84.69509 z"
       id="path7"
       sodipodi:nodetypes="sssss" />
    <path
       style="fill:#1b1825;fill-opacity:1;stroke:#000000;stroke-width:3.77953;stroke-opacity:1"
       d="m 1364.4604,585.45751 c 2.0204,4.31218 82.0174,3.54987 84.6951,0.94631 2.4019,-2.33536 3.8555,-80.90431 -0.9463,-84.69509 -6.8773,-5.42941 -80.6589,-2.97755 -83.2756,-0.94631 -3.2976,2.55982 -2.6737,79.99832 -0.4732,84.69509 z"
       id="path8"
       sodipodi:nodetypes="sssss" />
    <path
       style="fill:#ffffff;fill-opacity:1;stroke:#ffffff;stroke-width:3.77953;stroke-opacity:1"
       d="m 1817.5277,678.93557 h 15.141"
       id="path4" />
  </g>
</svg>
